<mxfile host="app.diagrams.net" modified="2023-10-24T07:11:58.025Z" agent="Mozilla/5.0 (X11; Linux x86_64) AppleWebKit/537.36 (KHTML, like Gecko) Chrome/118.0.0.0 Safari/537.36" version="22.0.6" etag="ZasLfs_yYvq3ahrzVCLw" type="github">
  <diagram name="Page-1" id="q2VKTPB2T817r5ZgWxwi">
    <mxGraphModel>
      <root>
        <mxCell id="0" />
        <mxCell id="1" parent="0" />
      </root>
    </mxGraphModel>
  </diagram>
</mxfile>
